<svg xmlns="http://www.w3.org/2000/svg" width="48" height="29" fill="#fff" viewBox="0 0 48 29">
  <path d="M0 0 C0 14.85 0 29.7 0 45 C3.63 44.01 7.26 43.02 11 42 C14.11683417 41.7335146 16.96611613 41.56528255 20.0625 41.625 C20.83835449 41.63515137 21.61420898 41.64530273 22.41357422 41.65576172 C32.17960368 41.91948745 39.78467656 44.16277211 47 51 C50.06354812 54.45303147 51.9600432 57.72767782 53.6875 62 C54.10386719 63.010625 54.52023438 64.02125 54.94921875 65.0625 C56.65687137 69.83630956 57.12400329 74.10641017 57.11352539 79.16723633 C57.11341209 80.99856865 57.11341209 80.99856865 57.11329651 82.86689758 C57.10813522 84.17539169 57.10297394 85.4838858 57.09765625 86.83203125 C57.09578961 88.19251961 57.09436687 89.55300865 57.09336853 90.91349792 C57.08956275 94.48255287 57.07974914 98.05156669 57.06866455 101.62060547 C57.05840863 105.26724695 57.05386197 108.91389511 57.04882812 112.56054688 C57.03812503 119.70704801 57.02107204 126.85352131 57 134 C54.01316593 135.49341703 51.25600226 135.13175178 47.9375 135.125 C46.66777344 135.12757813 45.39804688 135.13015625 44.08984375 135.1328125 C41 135 41 135 40 134 C39.88785937 132.50935824 39.84326598 131.01355782 39.82641602 129.51879883 C39.81292618 128.56302444 39.79943634 127.60725006 39.78553772 126.62251282 C39.77509933 125.5779039 39.76466095 124.53329498 39.75390625 123.45703125 C39.72091751 121.2454395 39.68770686 119.03385105 39.65429688 116.82226562 C39.60724182 113.33604662 39.5629255 109.84983575 39.52319336 106.36352539 C40.64327753 83.07736314 40.64327753 83.07736314 33 62 C24.64444845 56.60370629 15.60485283 57.4933157 6.15234375 59.01171875 C4.99597412 59.19565186 3.83960449 59.37958496 2.64819336 59.5690918 C1.77428955 59.7112915 0.90038574 59.85349121 0 60 C0.00222061 60.92485703 0.00444122 61.84971405 0.00672913 62.80259705 C0.02672913 71.49952587 0.04197264 80.19644702 0.05181217 88.89339352 C0.05704074 93.36505549 0.06413789 97.83669853 0.07543945 102.30834961 C0.08626929 106.62011973 0.09227704 110.93187159 0.09487724 115.24365425 C0.09673132 116.89236298 0.1003516 118.54107066 0.10573006 120.18977165 C0.11294178 122.49103872 0.11399089 124.7922294 0.11352539 127.09350586 C0.115746 128.4058873 0.11796661 129.71826874 0.12025452 131.07041931 C0 134 0 134 -1 135 C-3.31074168 135.09932392 -5.62462942 135.12969618 -7.9375 135.125 C-9.20464844 135.12757813 -10.47179688 135.13015625 -11.77734375 135.1328125 C-15 135 -15 135 -17 134 C-17 90.77 -17 47.54 -17 3 C-10.8571083 0.95236943 -6.42559569 0 0 0 Z " fill="#000000" transform="translate(19,2)"/>
<path d="M0 0 C6.65117994 5.57445204 9.12026167 14.24496161 9.90625 22.59765625 C10.26530285 31.25570244 10.21976891 39.93107753 10.25634766 48.59570312 C10.26975774 51.43782222 10.29776004 54.27923531 10.33837891 57.12109375 C10.39697568 61.22277957 10.4149708 65.32369937 10.4296875 69.42578125 C10.45235687 70.70076477 10.47502625 71.97574829 10.49838257 73.28936768 C10.49553253 74.46779236 10.4926825 75.64621704 10.48974609 76.86035156 C10.49783295 77.89846985 10.5059198 78.93658813 10.51425171 80.00616455 C9.90625 82.59765625 9.90625 82.59765625 7.57998657 84.4105835 C-1.81934102 88.58365193 -14.34415208 87.82562668 -24.46875 87.97265625 C-25.45399658 87.9986792 -26.43924316 88.02470215 -27.4543457 88.05151367 C-37.35215471 88.07557171 -47.41303049 85.07389929 -55.09375 78.59765625 C-60.86223655 72.54957469 -61.72324595 64.66538189 -62.09375 56.59765625 C-61.65804119 49.28864103 -58.67006128 42.83052219 -53.22265625 37.90625 C-42.08985328 29.7558126 -28.5129474 28.09955108 -15.09375 29.59765625 C-12.69265617 30.13832213 -10.43554169 30.82529751 -8.09375 31.59765625 C-8.33417606 24.27668269 -8.5533388 18.52541531 -13.09375 12.59765625 C-19.50540262 7.66561577 -27.35937858 8.19256737 -35.09375 8.59765625 C-37.96674717 9.02069681 -40.78381459 9.54391462 -43.62109375 10.16015625 C-46.09375 10.59765625 -46.09375 10.59765625 -51.09375 10.59765625 C-51.42375 5.97765625 -51.75375 1.35765625 -52.09375 -3.40234375 C-35.80175904 -9.97630501 -14.67789236 -10.51743343 0 0 Z M-41.8125 49.828125 C-44.06700058 52.94181025 -44.34882163 55.82988382 -44.09375 59.59765625 C-43.42309469 63.62158809 -42.74942997 65.86249992 -40.03125 68.91015625 C-30.3877095 74.4500625 -18.69473115 73.02405307 -8.09375 71.59765625 C-8.06488463 67.28517016 -8.04699745 62.97270863 -8.03125 58.66015625 C-8.01868164 56.81260742 -8.01868164 56.81260742 -8.00585938 54.92773438 C-8.00263672 53.75791016 -7.99941406 52.58808594 -7.99609375 51.3828125 C-7.99085693 50.2987915 -7.98562012 49.21477051 -7.98022461 48.09790039 C-7.80948103 45.65715677 -7.80948103 45.65715677 -9.09375 44.59765625 C-19.81161766 42.54529861 -33.44830381 41.72037822 -41.8125 49.828125 Z " fill="#000000" transform="translate(304.09375,51.40234375)"/>
<path d="M0 0 C1.45019531 0.66902344 1.45019531 0.66902344 2.9296875 1.3515625 C13.26227756 6.89908541 20.32614979 16.03508601 23.8125 27.125 C27.50294217 42.6556108 26.844375 58.84185976 19 73 C13.8791389 80.16515742 7.90599837 85.17329472 0 89 C-0.68320313 89.33902344 -1.36640625 89.67804688 -2.0703125 90.02734375 C-11.37382277 93.86548392 -22.68859736 93.23143583 -32 89.875 C-45.10344574 84.10883599 -52.56026472 75.10942415 -58 62 C-62.31568835 49.01183315 -61.00601834 33.97472327 -55.48828125 21.61328125 C-49.49133339 9.79457727 -41.87837805 2.36766064 -29.375 -2.375 C-19.88131452 -4.25053461 -8.80732215 -4.19642997 0 0 Z M-35.75390625 20.94140625 C-42.42468705 31.96178706 -43.46272218 44.19891531 -40.6953125 56.61328125 C-38.62636538 63.71511658 -35.00548476 70.34516075 -28.5625 74.25 C-22.67628019 77.1414764 -16.99920194 78.05375797 -10.5390625 76.3515625 C-3.24798125 73.78983125 0.43047315 70.44046358 4.25 63.83984375 C8.9953705 53.44286879 8.93104691 38.41267173 5.375 27.625 C2.33489547 20.96421543 -1.09328506 16.55810414 -7.875 13.5625 C-18.09608861 10.03851273 -28.92573662 11.94679186 -35.75390625 20.94140625 Z " fill="#000000" transform="translate(155,47)"/>
<path d="M0 0 C0.00331015 0.58383831 0.00662029 1.16767662 0.01003075 1.769207 C0.09124541 15.97422761 0.1833328 30.17914291 0.28752708 44.38401413 C0.33765235 51.25338259 0.38409524 58.12273913 0.421875 64.9921875 C0.45832948 71.61878319 0.50503822 78.24525498 0.55806351 84.87174225 C0.57662824 87.40271994 0.59172846 89.93372544 0.60334396 92.46474457 C0.62017061 96.00365031 0.64919755 99.54225779 0.68115234 103.08105469 C0.68331253 104.13265778 0.68547272 105.18426086 0.68769836 106.26773071 C0.69886185 107.23244293 0.71002533 108.19715515 0.7215271 109.19110107 C0.72705786 110.0280891 0.73258862 110.86507713 0.73828697 111.72742844 C1.02949988 114.25616073 1.63685114 115.85737815 3 118 C5.38842417 119.34147542 5.38842417 119.34147542 8.125 120.25 C9.49011719 120.75273437 9.49011719 120.75273437 10.8828125 121.265625 C11.58148438 121.50796875 12.28015625 121.7503125 13 122 C12.88623383 124.12563103 12.75864369 126.2505261 12.625 128.375 C12.55539063 129.55835938 12.48578125 130.74171875 12.4140625 131.9609375 C12 135 12 135 10 137 C2.08917478 137.84758842 -5.06354463 135.46401246 -11.4375 130.6875 C-19.08481675 122.6671434 -18.15134528 111.35365498 -18.11352539 100.97241211 C-18.11367142 99.90795868 -18.11381744 98.84350525 -18.1139679 97.74679565 C-18.11327576 94.25695703 -18.10551631 90.76717296 -18.09765625 87.27734375 C-18.09578958 84.84640024 -18.09436685 82.41545635 -18.09336853 79.98451233 C-18.08956294 73.60758412 -18.07974946 67.23067893 -18.06866455 60.85375977 C-18.05840824 54.33805655 -18.05386189 47.8223496 -18.04882812 41.30664062 C-18.03812535 28.53775063 -18.02126666 15.76887655 -18 3 C-11.83847299 0.89481161 -6.51251476 -0.05427096 0 0 Z " fill="#000000" transform="translate(219,2)"/>
<path d="M0 0 C6.27 0 12.54 0 19 0 C19.35306054 38.46398447 19.35306054 38.46398447 18.125 57.3125 C18.04652832 58.54170166 17.96805664 59.77090332 17.88720703 61.03735352 C17.37230193 68.14867727 16.39948767 75.00844187 15 82 C11.04 82 7.08 82 3 82 C-0.98941169 54.76276664 -0.29676498 27.45913055 0 0 Z " fill="#000000" transform="translate(340,17)"/>
<path d="M0 0 C3.06765423 1.72196807 5.40321354 3.80642707 7 7 C7.55258891 12.03671207 7.53929549 15.92140903 5.25 20.5 C1.78269779 24.35255801 0.27756335 24.89860608 -4.9375 25.3125 C-8.72776772 25.19273318 -11.05155934 24.52723485 -14 22 C-16.89550431 17.60682104 -17.55878366 14.21531417 -17 9 C-15.74244162 5.55826126 -14.62080644 3.54777039 -11.875 1.125 C-7.83264971 -0.45678925 -4.27798641 -0.82702725 0 0 Z " fill="#000000" transform="translate(354,114)"/>
</svg>